<?xml version="1.0" encoding="UTF-8"?>
<svg xmlns="http://www.w3.org/2000/svg" xmlns:xlink="http://www.w3.org/1999/xlink" width="500pt" height="500pt" viewBox="0 0 500 500" version="1.1">
<g id="surface681215">
<path style=" stroke:none;fill-rule:nonzero;fill:rgb(90.196078%,49.411765%,13.333333%);fill-opacity:1;" d="M 300.3125 30 C 298.671875 29.960938 297.03125 30.3125 295.546875 31.054688 C 289.257812 34.179688 285.234375 38.789062 281.601562 42.8125 C 278.007812 46.835938 275.3125 50.429688 275.3125 50.429688 C 275.195312 50.585938 275.078125 50.742188 275 50.898438 C 265.078125 65.820312 260.195312 82.8125 260 99.921875 C 259.882812 113.085938 262.539062 126.328125 267.695312 138.789062 C 280.3125 169.0625 305.664062 192.460938 335.46875 203.632812 L 335.507812 203.632812 C 336.875 204.179688 338.085938 204.609375 339.0625 204.960938 C 339.21875 205 339.375 205.039062 339.53125 205.117188 C 339.726562 205.15625 340.15625 205.3125 340.898438 205.507812 C 342.03125 205.898438 343.945312 206.679688 346.757812 207.226562 C 354.921875 208.867188 362.539062 209.726562 369.6875 209.960938 C 401.328125 210.9375 423.242188 198.75 436.914062 185.429688 C 443.75 178.75 448.632812 171.835938 452.070312 166.210938 C 455.546875 160.585938 458.203125 155.507812 458.242188 155.46875 L 458.28125 155.46875 C 461.289062 150.898438 460.078125 144.765625 455.585938 141.679688 C 451.054688 138.59375 444.882812 139.726562 441.71875 144.21875 C 433.984375 155.585938 424.375 162.109375 412.109375 165.273438 C 399.84375 168.4375 384.765625 167.96875 367.460938 163.671875 C 365.117188 163.085938 362.226562 162.148438 359.609375 161.171875 C 359.609375 161.171875 359.570312 161.171875 359.53125 161.132812 C 356.367188 160 353.125 158.632812 349.960938 157.109375 L 349.921875 157.070312 L 349.84375 157.03125 C 343.945312 154.101562 338.242188 150.585938 333.046875 146.523438 C 318.671875 135.351562 307.5 117.070312 302.734375 97.96875 C 297.96875 78.867188 299.609375 59.414062 308.476562 45.3125 C 310.390625 42.265625 310.507812 38.4375 308.828125 35.273438 C 307.148438 32.109375 303.90625 30.117188 300.3125 30 Z M 209.960938 50 C 207.65625 50 205.429688 50.820312 203.671875 52.265625 C 187.65625 65.3125 172.421875 85.585938 172.421875 85.585938 C 172.304688 85.703125 172.226562 85.859375 172.148438 86.015625 C 142.539062 129.0625 144.375 185.664062 166.914062 230.3125 C 170.625 237.695312 174.84375 244.882812 179.570312 251.71875 C 179.609375 251.757812 179.609375 251.757812 179.609375 251.757812 C 183.320312 257.226562 187.8125 264.375 194.296875 270.351562 C 196.40625 272.773438 198.59375 275.039062 200.78125 277.1875 C 201.289062 277.734375 201.835938 278.28125 202.34375 278.789062 C 202.382812 278.867188 202.421875 278.90625 202.460938 278.90625 C 204.53125 280.9375 206.679688 282.96875 208.90625 284.960938 L 208.945312 285 C 209.023438 285.078125 209.140625 285.195312 209.21875 285.273438 L 209.375 285.351562 C 209.492188 285.507812 209.648438 285.625 209.804688 285.742188 C 212.148438 287.851562 214.53125 289.84375 216.992188 291.757812 C 217.109375 291.875 217.1875 291.953125 217.304688 292.03125 C 217.304688 292.03125 217.851562 292.5 218.984375 293.320312 C 221.484375 295.273438 224.023438 297.148438 226.523438 298.945312 C 226.835938 299.179688 227.1875 299.414062 227.5 299.570312 C 227.734375 299.726562 227.890625 299.84375 228.085938 300 L 228.125 300 C 229.023438 300.625 229.921875 301.210938 230.664062 301.71875 C 230.898438 301.875 231.445312 302.265625 232.34375 302.851562 C 234.296875 304.140625 236.210938 305.3125 238.203125 306.523438 C 238.398438 306.640625 238.632812 306.757812 238.828125 306.875 C 238.828125 306.875 239.140625 307.03125 239.492188 307.1875 C 239.570312 307.265625 239.570312 307.226562 239.6875 307.304688 C 241.25 308.242188 242.851562 309.179688 244.53125 310.039062 C 245.117188 310.390625 245.820312 310.742188 246.015625 310.859375 C 246.132812 310.9375 246.25 310.976562 246.367188 311.054688 C 247.382812 311.5625 248.476562 312.148438 249.609375 312.773438 C 250.585938 313.28125 250.859375 313.320312 250.78125 313.320312 C 253.28125 314.53125 255.664062 315.625 257.890625 316.679688 C 258.046875 316.71875 258.203125 316.796875 258.398438 316.875 C 258.867188 317.070312 259.257812 317.226562 259.765625 317.460938 C 261.757812 318.28125 263.828125 319.21875 266.015625 320.039062 C 266.132812 320.078125 266.289062 320.15625 266.40625 320.195312 C 266.835938 320.351562 267.578125 320.625 268.710938 321.054688 C 268.710938 321.054688 268.75 321.054688 268.75 321.09375 C 270.625 321.757812 272.539062 322.382812 274.414062 323.007812 C 275.390625 323.359375 276.25 323.632812 276.992188 323.90625 C 276.992188 323.90625 276.992188 323.90625 277.03125 323.90625 C 279.101562 324.570312 282.1875 325.859375 286.367188 326.5625 C 286.367188 326.5625 286.367188 326.523438 286.40625 326.5625 C 302.1875 329.179688 316.757812 330.234375 330.195312 329.960938 C 385.15625 328.75 420.78125 304.53125 441.679688 280.703125 C 462.539062 256.875 469.570312 232.8125 469.570312 232.8125 C 470.976562 228.085938 468.710938 223.085938 464.257812 220.976562 C 459.84375 218.867188 454.53125 220.3125 451.71875 224.375 C 425.15625 263.203125 373.515625 283.164062 317.03125 268.28125 C 314.53125 267.65625 312.109375 266.953125 309.726562 266.132812 C 309.570312 266.09375 309.375 266.015625 309.179688 265.976562 C 308.828125 265.898438 308.359375 265.742188 307.539062 265.46875 C 307.460938 265.429688 307.382812 265.390625 307.34375 265.351562 C 305.507812 264.765625 303.789062 264.21875 302.226562 263.59375 C 302.226562 263.59375 302.226562 263.59375 302.1875 263.59375 C 301.289062 263.242188 300.507812 262.96875 299.84375 262.695312 C 297.851562 261.914062 295.976562 261.171875 294.375 260.46875 C 294.257812 260.390625 294.179688 260.351562 294.0625 260.3125 C 293.203125 259.960938 292.8125 259.765625 293.359375 260.039062 C 293.125 259.921875 292.890625 259.84375 292.65625 259.726562 C 290.46875 258.75 288.203125 257.695312 285.9375 256.5625 L 285.78125 256.523438 C 285.78125 256.484375 285.742188 256.484375 285.703125 256.445312 C 284.570312 255.859375 283.476562 255.3125 282.34375 254.6875 C 282.304688 254.6875 282.265625 254.648438 282.1875 254.648438 C 281.484375 254.257812 280.820312 253.90625 280.234375 253.59375 L 280.234375 253.632812 C 278.945312 252.96875 277.617188 252.148438 276.054688 251.210938 C 275.9375 251.171875 275.859375 251.132812 275.78125 251.09375 C 275.3125 250.820312 275.15625 250.742188 275.078125 250.664062 L 275.039062 250.664062 L 274.960938 250.625 C 273.046875 249.453125 271.25 248.359375 269.84375 247.382812 C 269.648438 247.265625 269.414062 247.148438 269.21875 247.03125 C 269.375 247.109375 268.945312 246.796875 267.929688 246.132812 C 266.875 245.46875 265.78125 244.765625 264.609375 243.945312 L 264.570312 243.945312 C 264.53125 243.90625 264.492188 243.867188 264.414062 243.867188 C 262.226562 242.265625 259.960938 240.546875 257.65625 238.789062 L 257.460938 238.59375 C 256.914062 238.164062 256.445312 237.8125 256.132812 237.539062 C 256.054688 237.5 255.976562 237.421875 255.898438 237.34375 C 230.976562 217.460938 211.367188 190.234375 202.148438 159.804688 L 202.148438 159.765625 C 192.890625 129.804688 202.421875 93.007812 218.632812 65 C 220.429688 61.914062 220.429688 58.085938 218.632812 54.960938 C 216.835938 51.875 213.515625 50 209.960938 50 Z M 100.039062 80 C 97.578125 80 95.15625 80.898438 93.320312 82.578125 C 92.773438 83.046875 92.5 83.554688 91.953125 84.0625 C 72.539062 102.03125 58.710938 123.90625 58.4375 124.375 C 18.203125 182.851562 23.554688 272.578125 53.59375 333.164062 C 53.59375 333.203125 53.59375 333.242188 53.59375 333.28125 C 54.375 334.921875 55.15625 336.367188 55.78125 337.5 C 56.09375 338.203125 56.445312 338.867188 56.796875 339.53125 C 57.539062 341.210938 58.085938 341.914062 58.164062 342.03125 C 58.632812 342.929688 59.101562 343.828125 59.453125 344.492188 C 59.492188 344.570312 59.570312 344.6875 59.609375 344.765625 C 60.507812 346.210938 61.367188 347.8125 62.34375 349.414062 C 62.34375 349.453125 62.382812 349.492188 62.421875 349.53125 C 62.851562 350.234375 63.398438 351.25 64.257812 352.5 C 65.351562 354.296875 66.367188 355.898438 67.109375 357.070312 C 67.148438 357.148438 67.1875 357.1875 67.1875 357.226562 C 67.578125 357.8125 68.046875 358.59375 68.632812 359.414062 C 68.671875 359.492188 68.710938 359.53125 68.75 359.570312 C 68.789062 359.648438 68.789062 359.6875 68.867188 359.804688 C 70.234375 361.875 71.679688 364.023438 73.28125 366.25 C 73.4375 366.445312 73.398438 366.367188 73.515625 366.5625 C 73.632812 366.71875 73.632812 366.71875 73.710938 366.835938 C 73.75 366.875 73.828125 366.992188 73.867188 367.070312 L 73.90625 367.109375 C 73.984375 367.226562 74.296875 367.617188 74.296875 367.617188 C 74.296875 367.65625 74.335938 367.695312 74.375 367.695312 C 75.78125 369.648438 77.226562 371.640625 78.75 373.59375 C 79.335938 374.375 79.84375 375.039062 80.117188 375.390625 C 80.195312 375.507812 80.3125 375.625 80.390625 375.78125 C 81.679688 377.304688 82.929688 378.867188 84.21875 380.46875 C 84.257812 380.546875 84.296875 380.585938 84.335938 380.625 C 84.726562 381.09375 85.234375 381.679688 85.78125 382.34375 C 87.460938 384.375 89.179688 386.328125 90.9375 388.28125 C 91.09375 388.4375 91.25 388.632812 91.40625 388.789062 L 91.328125 388.671875 C 91.835938 389.257812 92.734375 390.234375 93.632812 390.820312 L 91.757812 389.21875 C 93.59375 391.25 95.46875 393.242188 97.34375 395.234375 C 97.382812 395.273438 97.421875 395.273438 97.421875 395.3125 C 98.085938 395.976562 98.75 396.640625 99.453125 397.34375 C 100.78125 398.671875 102.1875 400.117188 103.828125 401.679688 C 104.453125 402.265625 105.078125 402.8125 105.507812 403.28125 C 105.546875 403.320312 105.546875 403.320312 105.585938 403.320312 C 107.382812 405.039062 109.335938 406.875 111.40625 408.710938 C 111.601562 408.828125 111.71875 408.984375 111.875 409.101562 C 111.875 409.140625 111.875 409.140625 111.875 409.140625 C 112.421875 409.609375 112.734375 409.882812 112.65625 409.804688 C 112.773438 409.882812 112.851562 410 112.96875 410.078125 C 114.804688 411.679688 116.640625 413.242188 118.476562 414.804688 C 119.375 415.507812 120.15625 416.132812 120.820312 416.71875 C 120.859375 416.71875 120.859375 416.71875 120.898438 416.71875 C 122.539062 418.085938 124.101562 419.257812 125.585938 420.390625 C 125.585938 420.429688 125.625 420.429688 125.625 420.46875 C 126.367188 421.015625 127.148438 421.601562 128.007812 422.265625 C 128.046875 422.304688 128.085938 422.304688 128.125 422.34375 C 129.882812 423.671875 131.640625 424.921875 133.320312 426.132812 C 133.828125 426.523438 134.414062 426.914062 135.039062 427.34375 C 135 427.304688 135.234375 427.5 135.15625 427.460938 C 135.429688 427.65625 135.703125 427.851562 135.9375 428.007812 C 137.578125 429.101562 139.179688 430.195312 140.859375 431.289062 C 140.859375 431.328125 140.898438 431.328125 140.898438 431.328125 C 141.640625 431.796875 142.304688 432.265625 142.96875 432.695312 C 143.007812 432.734375 143.046875 432.773438 143.125 432.8125 C 145.78125 434.53125 148.398438 436.132812 150.976562 437.695312 C 151.132812 437.8125 151.289062 437.890625 151.445312 437.96875 C 152.070312 438.320312 152.65625 438.632812 153.203125 438.945312 C 153.242188 438.984375 153.242188 438.984375 153.28125 439.023438 C 155.273438 440.15625 157.265625 441.328125 159.375 442.460938 L 159.179688 442.34375 C 160.585938 443.125 161.835938 443.710938 162.851562 444.21875 C 164.101562 444.921875 165.429688 445.664062 166.835938 446.367188 C 167.03125 446.484375 167.265625 446.601562 167.5 446.71875 C 168.242188 446.992188 168.242188 447.070312 167.460938 446.601562 C 167.734375 446.796875 168.007812 446.914062 168.28125 447.03125 C 168.398438 447.109375 168.828125 447.304688 169.570312 447.695312 C 169.609375 447.695312 169.609375 447.695312 169.648438 447.695312 C 171.953125 448.867188 174.21875 449.921875 176.5625 450.9375 C 177.109375 451.210938 177.460938 451.367188 177.34375 451.289062 C 177.578125 451.40625 177.773438 451.523438 177.96875 451.601562 C 180.585938 452.773438 183.242188 453.867188 185.9375 454.960938 C 185.976562 454.960938 186.054688 455 186.09375 455 C 186.25 455.039062 187.03125 455.390625 187.8125 455.664062 C 187.96875 455.742188 188.125 455.78125 188.28125 455.820312 C 188.359375 455.859375 188.320312 455.859375 188.398438 455.898438 C 190.546875 456.71875 192.695312 457.539062 194.84375 458.28125 C 195.429688 458.554688 195.9375 458.710938 196.289062 458.867188 C 199.101562 459.804688 201.835938 460.703125 204.648438 461.5625 C 204.726562 461.601562 204.804688 461.640625 204.921875 461.679688 C 205.078125 461.71875 205.820312 461.953125 206.640625 462.1875 C 206.679688 462.1875 206.71875 462.226562 206.757812 462.226562 C 206.953125 462.265625 206.914062 462.265625 207.109375 462.34375 C 209.492188 463.085938 212.304688 464.140625 215.976562 464.84375 C 216.015625 464.84375 216.015625 464.84375 216.054688 464.84375 C 235.351562 468.398438 253.28125 470 270 470 C 413.359375 470.039062 459.335938 353.554688 459.335938 353.554688 C 461.09375 348.90625 459.179688 343.671875 454.84375 341.25 C 450.507812 338.867188 445.039062 340 442.03125 343.945312 C 401.210938 397.617188 328.007812 408.476562 256.601562 392.070312 C 254.453125 391.5625 251.914062 390.78125 248.984375 389.882812 C 248.945312 389.882812 248.867188 389.84375 248.828125 389.84375 C 248.320312 389.6875 247.773438 389.53125 247.5 389.414062 C 247.34375 389.375 247.1875 389.335938 247.03125 389.296875 C 244.53125 388.515625 241.992188 387.65625 239.453125 386.796875 C 239.414062 386.757812 239.335938 386.757812 239.257812 386.71875 C 239.101562 386.679688 238.945312 386.640625 238.828125 386.5625 C 238.671875 386.523438 238.515625 386.445312 238.320312 386.40625 C 236.367188 385.703125 234.257812 384.921875 232.070312 384.0625 L 231.71875 383.90625 C 230.859375 383.59375 230.117188 383.320312 229.804688 383.164062 C 227.460938 382.226562 225.039062 381.210938 222.65625 380.15625 C 222.421875 380.039062 222.226562 379.960938 222.03125 379.882812 C 222.070312 379.882812 221.5625 379.6875 221.25 379.570312 C 219.179688 378.59375 217.148438 377.617188 215.039062 376.601562 C 214.882812 376.5625 214.765625 376.484375 214.609375 376.40625 C 214.492188 376.367188 214.140625 376.210938 213.4375 375.820312 C 213.359375 375.78125 213.28125 375.742188 213.164062 375.703125 C 211.796875 375.039062 210.273438 374.257812 208.710938 373.398438 C 208.671875 373.359375 208.59375 373.320312 208.554688 373.28125 C 207.304688 372.65625 206.328125 372.1875 205.625 371.757812 C 205.546875 371.757812 205.507812 371.71875 205.429688 371.679688 C 203.59375 370.703125 201.679688 369.570312 199.648438 368.4375 L 200.429688 368.90625 C 199.101562 368.046875 198.164062 367.578125 197.617188 367.265625 L 197.929688 367.421875 C 195.390625 365.898438 192.890625 364.375 190.507812 362.851562 C 190.46875 362.8125 190.429688 362.8125 190.429688 362.773438 C 189.960938 362.5 189.414062 362.148438 188.75 361.679688 C 188.632812 361.5625 188.476562 361.484375 188.359375 361.40625 C 186.71875 360.351562 185.039062 359.179688 183.28125 358.007812 L 183.164062 357.929688 C 182.8125 357.65625 182.265625 357.265625 181.523438 356.71875 C 179.960938 355.625 178.398438 354.492188 176.796875 353.28125 L 176.71875 353.28125 C 176.640625 353.203125 176.601562 353.164062 176.523438 353.085938 C 175.898438 352.578125 175.195312 352.070312 174.492188 351.523438 C 172.929688 350.3125 171.445312 349.179688 170.117188 348.085938 L 169.921875 347.96875 C 169.140625 347.304688 168.4375 346.71875 167.929688 346.289062 C 167.929688 346.289062 167.890625 346.289062 167.851562 346.25 C 166.015625 344.765625 164.257812 343.203125 162.34375 341.5625 L 163.164062 342.382812 C 161.5625 340.585938 160.820312 340.351562 161.210938 340.625 L 161.757812 341.09375 C 159.84375 339.375 157.890625 337.539062 155.898438 335.664062 L 155.78125 335.585938 C 155.46875 335.273438 154.960938 334.765625 154.296875 334.140625 L 154.023438 333.867188 C 152.578125 332.460938 151.25 331.132812 150.039062 329.921875 C 150 329.882812 150 329.882812 149.960938 329.84375 C 149.414062 329.296875 148.90625 328.75 148.28125 328.125 C 146.5625 326.40625 144.882812 324.570312 143.203125 322.695312 C 143.125 322.617188 143.007812 322.5 142.929688 322.382812 L 142.890625 322.382812 C 141.132812 320.46875 139.414062 318.476562 137.65625 316.40625 C 137.65625 316.367188 137.65625 316.328125 137.617188 316.289062 C 137.34375 315.976562 136.875 315.390625 136.132812 314.53125 C 134.921875 313.046875 133.710938 311.484375 132.382812 309.882812 L 132.34375 309.84375 C 131.914062 309.257812 131.445312 308.632812 131.171875 308.28125 L 131.132812 308.242188 C 129.648438 306.289062 128.242188 304.375 126.835938 302.421875 L 126.796875 302.382812 C 107.96875 276.445312 94.960938 234.492188 91.328125 194.101562 C 87.65625 153.75 93.945312 115 108.007812 95.9375 C 110.273438 92.929688 110.625 88.90625 108.945312 85.546875 C 107.265625 82.148438 103.828125 80.039062 100.039062 80 Z M 282.03125 86.484375 C 282.578125 91.953125 281.992188 97.460938 283.320312 102.8125 C 289.140625 125.976562 302.148438 147.851562 320.78125 162.34375 C 327.148438 167.265625 333.984375 171.523438 341.054688 175 C 341.09375 175.039062 341.132812 175.078125 341.171875 175.078125 C 344.921875 176.875 348.789062 178.515625 352.734375 179.960938 L 352.65625 179.921875 C 355.703125 181.054688 359.140625 182.226562 362.617188 183.085938 C 371.640625 185.3125 380.351562 186.484375 388.789062 186.953125 C 382.851562 188.164062 377.890625 190.195312 370.3125 189.960938 C 364.375 189.765625 357.8125 189.023438 350.664062 187.617188 L 350.625 187.617188 C 350.15625 187.539062 348.945312 187.070312 346.875 186.445312 C 346.640625 186.367188 346.171875 186.210938 345.664062 186.054688 C 344.453125 185.625 343.476562 185.3125 342.734375 185 C 342.65625 184.960938 342.617188 184.960938 342.539062 184.921875 C 317.851562 175.664062 296.484375 155.898438 286.171875 131.09375 C 281.992188 121.015625 279.882812 110.46875 280 100.117188 C 280.039062 95.46875 281.132812 90.976562 282.03125 86.484375 Z M 180.390625 114.6875 C 177.851562 131.601562 177.890625 148.945312 183.007812 165.625 C 193.554688 200.390625 215.585938 230.742188 243.4375 252.96875 C 244.023438 253.476562 244.609375 253.945312 245 254.296875 C 245.078125 254.335938 245.15625 254.414062 245.234375 254.453125 C 247.734375 256.40625 250.351562 258.398438 253.085938 260.3125 C 253.125 260.351562 253.203125 260.390625 253.28125 260.429688 C 254.53125 261.289062 255.78125 262.109375 257.148438 262.96875 C 257.148438 263.007812 257.148438 263.007812 257.148438 263.007812 C 257.226562 263.046875 257.929688 263.59375 259.257812 264.375 C 261.132812 265.585938 263.007812 266.71875 264.570312 267.695312 C 264.648438 267.734375 264.6875 267.773438 264.726562 267.8125 C 265.429688 268.203125 265.898438 268.476562 266.09375 268.554688 C 267.5 269.414062 269.0625 270.351562 270.9375 271.328125 C 270.9375 271.328125 270.9375 271.328125 270.9375 271.367188 C 271.679688 271.71875 272.421875 272.109375 273.164062 272.460938 C 274.375 273.085938 275.546875 273.710938 276.71875 274.335938 C 276.796875 274.375 276.875 274.414062 276.992188 274.453125 C 279.179688 275.546875 281.523438 276.640625 283.945312 277.695312 C 285.234375 278.359375 285.78125 278.554688 286.132812 278.671875 C 288.398438 279.6875 290.546875 280.507812 292.5 281.289062 C 293.476562 281.679688 294.414062 282.03125 295.15625 282.34375 L 295.117188 282.304688 C 297.1875 283.085938 299.21875 283.75 301.132812 284.375 C 301.71875 284.609375 302.539062 284.84375 303.4375 285.117188 C 306.210938 286.054688 309.0625 286.914062 311.953125 287.65625 C 349.453125 297.539062 385.195312 292.460938 415.390625 278.28125 C 397.03125 294.726562 370.390625 309.0625 329.765625 309.960938 C 317.65625 310.234375 304.335938 309.296875 289.648438 306.835938 C 289.609375 306.796875 289.570312 306.796875 289.53125 306.796875 C 288.320312 306.601562 286.210938 305.820312 283.164062 304.84375 C 282.304688 304.609375 281.5625 304.335938 280.78125 304.0625 C 279.0625 303.515625 277.304688 302.890625 275.585938 302.265625 L 275.507812 302.226562 C 275.078125 302.070312 274.21875 301.757812 273.203125 301.40625 L 272.96875 301.289062 C 272.890625 301.25 272.890625 301.25 272.8125 301.25 C 271.171875 300.585938 269.453125 299.84375 267.65625 299.0625 C 267.65625 299.0625 267.65625 299.0625 267.617188 299.0625 C 267.109375 298.828125 266.601562 298.59375 266.015625 298.398438 C 263.671875 297.304688 261.445312 296.289062 259.375 295.234375 C 259.257812 295.195312 259.140625 295.15625 259.023438 295.117188 C 258.007812 294.53125 256.875 293.945312 255.664062 293.359375 L 255.546875 293.28125 C 255.46875 293.242188 255.429688 293.203125 255.351562 293.164062 C 254.882812 292.929688 254.375 292.65625 254.375 292.65625 C 254.140625 292.5 253.90625 292.382812 253.710938 292.265625 C 252.265625 291.523438 250.78125 290.664062 249.375 289.804688 C 249.101562 289.648438 248.867188 289.53125 248.59375 289.375 C 248.59375 289.375 248.359375 289.257812 248.242188 289.21875 C 246.523438 288.164062 244.882812 287.148438 243.203125 286.054688 C 243.164062 286.015625 243.125 285.976562 243.085938 285.9375 C 242.929688 285.859375 242.421875 285.507812 241.5625 284.960938 C 240.3125 284.140625 239.296875 283.476562 238.515625 282.929688 C 238.28125 282.734375 238.007812 282.578125 237.734375 282.382812 C 237.734375 282.382812 237.695312 282.382812 237.65625 282.34375 C 235.390625 280.703125 233.164062 279.0625 231.054688 277.382812 C 230.9375 277.304688 230.820312 277.226562 230.742188 277.148438 C 230.703125 277.109375 230.117188 276.640625 229.375 276.054688 C 227.148438 274.296875 225.039062 272.539062 222.96875 270.703125 C 222.929688 270.664062 222.929688 270.664062 222.890625 270.625 C 222.8125 270.546875 222.695312 270.46875 222.617188 270.390625 C 222.578125 270.351562 222.5 270.3125 222.460938 270.273438 C 222.382812 270.195312 222.34375 270.15625 222.304688 270.117188 C 220.351562 268.359375 218.4375 266.5625 216.523438 264.6875 L 216.40625 264.570312 C 215.898438 264.0625 215.429688 263.59375 215 263.125 C 214.960938 263.125 214.960938 263.085938 214.921875 263.085938 C 212.851562 261.015625 210.976562 259.0625 209.335938 257.148438 C 209.023438 256.796875 208.710938 256.484375 208.359375 256.210938 C 204.53125 252.851562 200.273438 246.523438 196.09375 240.429688 C 196.054688 240.390625 196.054688 240.390625 196.054688 240.351562 C 191.835938 234.335938 188.085938 227.96875 184.804688 221.367188 C 184.804688 221.328125 184.804688 221.328125 184.804688 221.289062 C 168.046875 188.203125 165.820312 148.164062 180.390625 114.6875 Z M 72.695312 140.78125 C 70.46875 158.242188 69.6875 176.757812 71.40625 195.9375 C 75.3125 239.179688 88.476562 283.632812 110.625 314.101562 C 112.148438 316.289062 113.710938 318.359375 115.3125 320.46875 C 115.898438 321.25 116.289062 321.71875 116.40625 321.875 C 116.5625 322.109375 116.71875 322.34375 116.914062 322.539062 C 118.164062 324.101562 119.453125 325.703125 120.78125 327.382812 C 120.898438 327.5 120.976562 327.578125 121.09375 327.695312 C 121.328125 327.96875 121.757812 328.554688 122.460938 329.375 C 124.257812 331.484375 126.132812 333.671875 128.085938 335.820312 C 128.164062 335.898438 128.242188 336.015625 128.320312 336.09375 C 130.15625 338.125 132.070312 340.15625 134.023438 342.148438 C 134.53125 342.65625 135.078125 343.242188 135.742188 343.90625 C 135.78125 343.945312 135.78125 343.945312 135.78125 343.945312 L 135.820312 343.984375 C 137.382812 345.546875 138.828125 346.992188 140.195312 348.320312 C 140.273438 348.398438 140.390625 348.515625 140.46875 348.59375 C 140.78125 348.867188 141.25 349.375 142.070312 350.15625 C 142.109375 350.195312 142.148438 350.195312 142.1875 350.234375 C 144.179688 352.109375 146.25 354.0625 148.398438 355.9375 C 148.554688 356.132812 148.75 356.289062 148.945312 356.445312 C 149.765625 357.070312 149.570312 357.148438 148.320312 355.78125 C 148.59375 356.054688 148.867188 356.328125 149.140625 356.5625 C 151.09375 358.320312 153.085938 360.039062 155.273438 361.796875 C 156.054688 362.421875 156.679688 362.929688 157.148438 363.320312 C 157.1875 363.359375 157.265625 363.4375 157.304688 363.476562 C 158.984375 364.84375 160.585938 366.054688 162.070312 367.226562 C 162.1875 367.34375 162.304688 367.421875 162.382812 367.5 C 163.046875 367.929688 163.671875 368.4375 164.375 368.945312 C 164.453125 369.0625 164.53125 369.140625 164.648438 369.21875 C 166.40625 370.46875 168.125 371.757812 170 373.085938 C 170.390625 373.359375 170.976562 373.828125 171.71875 374.375 C 171.757812 374.375 171.796875 374.414062 171.875 374.414062 C 173.671875 375.664062 175.585938 376.992188 177.65625 378.28125 C 178.203125 378.671875 178.828125 379.140625 179.648438 379.648438 C 179.6875 379.6875 179.726562 379.6875 179.726562 379.6875 C 182.382812 381.40625 185.039062 383.046875 187.617188 384.570312 C 187.695312 384.609375 187.773438 384.6875 187.890625 384.726562 C 188.75 385.195312 189.140625 385.429688 189.0625 385.390625 C 189.296875 385.546875 189.570312 385.742188 189.84375 385.898438 C 191.71875 386.914062 193.671875 388.046875 195.742188 389.179688 L 195.78125 389.21875 C 195.820312 389.21875 195.859375 389.257812 195.9375 389.257812 C 197.226562 390 198.398438 390.585938 199.375 391.09375 C 200.898438 391.914062 202.539062 392.773438 204.257812 393.59375 C 204.296875 393.632812 204.414062 393.671875 204.414062 393.710938 C 204.492188 393.710938 204.492188 393.710938 204.53125 393.75 C 205.117188 394.023438 205.78125 394.414062 206.835938 394.84375 C 208.789062 395.820312 210.78125 396.757812 212.851562 397.695312 C 213.007812 397.773438 213.164062 397.851562 213.320312 397.929688 C 213.359375 397.929688 214.023438 398.203125 214.53125 398.4375 C 217.03125 399.53125 219.6875 400.664062 222.460938 401.757812 C 222.460938 401.796875 222.5 401.796875 222.5 401.796875 C 223.398438 402.148438 223.945312 402.34375 224.0625 402.382812 C 224.21875 402.460938 224.335938 402.5 224.492188 402.539062 C 226.796875 403.476562 229.21875 404.414062 231.796875 405.3125 C 232.226562 405.46875 232.695312 405.625 233.125 405.78125 C 235.585938 406.640625 238.125 407.460938 240.742188 408.28125 C 241.757812 408.632812 242.65625 408.867188 243.4375 409.101562 C 246.015625 409.882812 248.867188 410.820312 252.148438 411.5625 C 305.078125 423.75 360.46875 420.664062 405.46875 397.773438 C 379.453125 423.828125 336.796875 450 270 450 C 254.570312 450 237.851562 448.515625 219.6875 445.15625 C 217.890625 444.804688 215.585938 444.023438 212.5 443.085938 C 212.34375 443.007812 212.1875 442.96875 212.03125 442.929688 C 211.992188 442.929688 211.367188 442.734375 210.625 442.5 L 210.3125 442.421875 C 207.8125 441.640625 205.351562 440.820312 202.851562 439.960938 C 202.773438 439.921875 202.734375 439.921875 202.65625 439.882812 C 202.382812 439.804688 202.460938 439.84375 202.539062 439.84375 C 202.421875 439.804688 202.265625 439.726562 202.148438 439.6875 C 199.765625 438.828125 197.382812 437.929688 195.15625 437.070312 C 195 436.992188 194.804688 436.953125 194.609375 436.875 C 194.6875 436.914062 194.140625 436.679688 193.320312 436.367188 L 193.164062 436.289062 C 190.742188 435.3125 188.398438 434.335938 186.015625 433.28125 C 185.546875 433.085938 184.921875 432.773438 184.84375 432.773438 C 184.804688 432.734375 184.765625 432.695312 184.726562 432.695312 C 182.539062 431.71875 180.507812 430.78125 178.554688 429.804688 L 178.476562 429.804688 C 178.320312 429.6875 177.734375 429.414062 177.34375 429.21875 C 176.445312 428.710938 176.328125 428.710938 176.015625 428.59375 L 175.859375 428.554688 C 174.609375 427.890625 173.359375 427.226562 172.148438 426.5625 C 172.03125 426.484375 171.914062 426.40625 171.796875 426.367188 C 170.625 425.78125 169.726562 425.3125 169.023438 424.921875 C 168.984375 424.882812 168.90625 424.84375 168.867188 424.84375 C 167.070312 423.867188 165.273438 422.851562 163.476562 421.796875 L 163.398438 421.757812 C 162.617188 421.289062 161.875 420.859375 161.09375 420.46875 L 160.898438 420.3125 C 158.554688 418.90625 156.25 417.460938 153.945312 415.976562 C 153.28125 415.507812 152.617188 415.117188 151.953125 414.6875 L 151.914062 414.648438 C 151.914062 414.648438 151.914062 414.648438 151.875 414.648438 C 150.351562 413.59375 148.867188 412.578125 147.265625 411.523438 C 147.03125 411.328125 146.757812 411.132812 146.484375 410.9375 C 146.09375 410.703125 145.625 410.351562 145.078125 409.960938 C 145.039062 409.921875 145 409.882812 144.960938 409.84375 C 143.320312 408.710938 141.71875 407.539062 140.195312 406.40625 L 140.15625 406.367188 L 140.117188 406.367188 C 139.375 405.78125 138.632812 405.195312 137.8125 404.570312 L 137.773438 404.53125 C 136.210938 403.359375 134.765625 402.265625 133.4375 401.171875 L 133.398438 401.132812 C 132.617188 400.507812 131.953125 400 131.40625 399.53125 C 131.40625 399.492188 131.367188 399.492188 131.367188 399.492188 C 129.570312 397.96875 127.8125 396.445312 126.054688 394.960938 C 125.820312 394.726562 125.625 394.570312 125.46875 394.492188 C 125.3125 394.296875 125.117188 394.140625 124.960938 393.984375 C 123.164062 392.460938 121.328125 390.703125 119.414062 388.90625 L 119.375 388.828125 C 118.710938 388.203125 118.125 387.695312 117.617188 387.1875 C 117.578125 387.148438 117.539062 387.109375 117.5 387.070312 C 116.25 385.898438 114.960938 384.53125 113.515625 383.085938 C 113.4375 383.007812 113.359375 382.929688 113.28125 382.8125 C 112.734375 382.304688 112.265625 381.875 111.796875 381.40625 C 110.039062 379.53125 108.320312 377.695312 106.601562 375.820312 C 106.5625 375.78125 106.523438 375.742188 106.523438 375.742188 C 106.445312 375.625 106.367188 375.546875 106.25 375.46875 C 104.53125 373.515625 102.851562 371.601562 101.25 369.648438 C 101.171875 369.570312 101.09375 369.492188 101.015625 369.375 C 100.703125 369.023438 100.273438 368.515625 99.804688 367.96875 L 99.765625 367.929688 C 99.765625 367.890625 99.726562 367.851562 99.6875 367.8125 C 98.476562 366.289062 97.1875 364.6875 95.859375 363.085938 C 95.390625 362.460938 94.960938 361.875 94.765625 361.5625 C 94.648438 361.445312 94.570312 361.328125 94.492188 361.25 C 93.203125 359.570312 91.914062 357.890625 90.625 356.09375 L 90.546875 355.976562 C 90.195312 355.46875 89.960938 355.195312 90.078125 355.351562 C 90 355.234375 89.921875 355.117188 89.84375 355 C 89.765625 354.882812 89.6875 354.804688 89.609375 354.6875 C 89.570312 354.648438 89.53125 354.570312 89.492188 354.53125 C 89.492188 354.53125 89.492188 354.53125 89.453125 354.53125 C 88.125 352.65625 86.796875 350.664062 85.390625 348.554688 C 85.351562 348.4375 85.273438 348.320312 85.15625 348.203125 C 84.921875 347.851562 84.609375 347.34375 84.21875 346.71875 L 84.101562 346.5625 C 82.929688 344.648438 81.875 343.085938 81.171875 341.875 C 81.09375 341.71875 80.976562 341.523438 80.859375 341.367188 C 80.546875 340.898438 80.15625 340.195312 79.570312 339.257812 L 79.53125 339.179688 C 78.710938 337.8125 77.851562 336.367188 76.953125 334.84375 L 76.953125 334.765625 C 76.875 334.6875 76.875 334.648438 76.796875 334.570312 C 76.40625 333.789062 76.054688 333.125 75.78125 332.578125 C 75.664062 332.34375 75.546875 332.148438 75.390625 331.914062 C 74.960938 331.132812 74.804688 330.78125 75.15625 331.523438 C 75 331.171875 74.84375 330.859375 74.6875 330.585938 C 74.335938 329.960938 73.984375 329.375 73.75 328.75 C 73.671875 328.59375 73.59375 328.4375 73.515625 328.28125 C 72.734375 326.796875 72.109375 325.625 71.640625 324.6875 C 71.601562 324.570312 71.5625 324.453125 71.523438 324.375 C 45.46875 271.835938 41.796875 190.859375 72.695312 140.78125 Z M 223.164062 271.054688 L 223.28125 271.09375 C 223.4375 271.328125 223.398438 271.25 223.59375 271.5625 C 223.476562 271.367188 223.320312 271.210938 223.164062 271.054688 Z M 106.679688 376.054688 C 106.679688 376.054688 106.796875 376.171875 106.835938 376.210938 C 106.953125 376.328125 106.914062 376.289062 107.03125 376.445312 L 107.070312 376.484375 L 107.070312 376.523438 C 107.148438 376.5625 107.1875 376.679688 107.226562 376.757812 C 106.914062 376.328125 106.796875 376.171875 106.679688 376.054688 Z M 147.460938 411.71875 L 147.8125 411.914062 C 147.109375 411.40625 147.148438 411.367188 147.8125 411.992188 C 147.695312 411.875 147.578125 411.796875 147.460938 411.71875 Z M 147.460938 411.71875 "/>
</g>
</svg>
