<?xml version="1.0" encoding="UTF-8"?>
<svg xmlns="http://www.w3.org/2000/svg" xmlns:xlink="http://www.w3.org/1999/xlink" width="250pt" height="250pt" viewBox="0 0 250 250" version="1.1">
<g id="surface1086183">
<path style="fill-rule:nonzero;fill:rgb(94.509804%,76.862745%,5.882353%);fill-opacity:1;stroke-width:1;stroke-linecap:butt;stroke-linejoin:round;stroke:rgb(6.666667%,5.882353%,3.921569%);stroke-opacity:1;stroke-miterlimit:10;" d="M 153.201019 6.880973 C 154.166247 6.880973 155.088217 7.286532 155.739814 8.000314 C 156.391411 8.711393 156.713154 9.665807 156.626635 10.628332 L 144.527477 146.252452 C 144.400402 147.671906 143.416247 148.864248 142.048164 149.256288 L 86.919266 164.986544 C 86.302817 165.162286 85.648516 165.162286 85.032067 164.986544 L 29.959947 149.256288 C 28.591864 148.864248 27.605005 147.671906 27.480634 146.252452 L 15.373365 10.628332 C 15.286846 9.665807 15.608589 8.711393 16.260186 8.000314 C 16.911783 7.286532 17.833753 6.880973 18.798981 6.880973 Z M 34.12368 143.291876 L 85.981074 158.105571 L 137.889839 143.291876 L 149.437437 13.759243 L 22.562563 13.759243 Z M 79.119027 34.399459 C 81.019743 34.399459 82.560865 35.940581 82.560865 37.841298 L 82.560865 127.280433 C 82.558161 128.35381 82.055269 129.367706 81.200893 130.0166 C 80.343813 130.668197 79.235287 130.879087 78.199761 130.592492 L 40.358463 120.096642 C 38.871416 119.682973 37.841298 118.331112 37.841298 116.784582 L 37.841298 99.772762 C 37.841298 98.699384 38.34419 97.685488 39.198566 97.036595 C 40.055646 96.387701 41.164173 96.174107 42.199698 96.460702 L 61.920649 101.922221 L 61.920649 37.841298 C 61.920649 35.940581 63.459067 34.399459 65.359784 34.399459 Z M 134.158702 34.399459 C 135.123931 34.399459 136.043197 34.805018 136.694794 35.516097 C 137.346391 36.224472 137.668134 37.176182 137.587022 38.136004 L 136.397384 51.895246 C 136.243272 53.674296 134.756225 55.039676 132.971768 55.039676 L 110.079351 55.039676 L 110.079351 75.15537 L 130.424862 72.273202 C 131.463091 72.127201 132.512135 72.459759 133.271881 73.181652 C 134.034331 73.903546 134.423667 74.930961 134.334444 75.974598 L 130.706049 118.114814 C 130.584381 119.55049 129.5813 120.756351 128.194291 121.140279 L 93.794831 130.5979 C 92.759306 130.884494 91.648076 130.668197 90.7937 130.019303 C 89.939323 129.367706 89.439135 128.35381 89.439135 127.280433 L 89.439135 111.450138 C 89.441839 109.903609 90.47466 108.549044 91.967115 108.138078 L 112.829037 102.40078 L 113.237299 96.30659 L 93.464977 99.71328 C 92.4646 99.886318 91.439889 99.607835 90.663921 98.953534 C 89.887953 98.299233 89.439135 97.334004 89.439135 96.320108 L 89.439135 37.841298 C 89.439135 35.940581 90.980257 34.399459 92.880973 34.399459 Z M 68.798919 106.450956 C 68.798919 107.527037 68.296026 108.538229 67.44165 109.189826 C 66.58457 109.83872 65.476044 110.052314 64.440518 109.763016 L 44.719567 104.296089 L 44.719567 114.172787 L 75.679892 122.757105 L 75.679892 41.280433 L 68.798919 41.280433 Z M 96.320108 92.234784 L 116.37632 88.78213 C 117.41455 88.600981 118.479816 88.909205 119.263896 89.61758 C 120.047975 90.323252 120.464349 91.350666 120.394052 92.402414 L 119.534268 105.301874 C 119.43423 106.761884 118.423038 107.997485 117.014399 108.386821 L 96.320108 114.078156 L 96.320108 122.765216 L 124.054892 115.138016 L 127.112802 79.692216 L 107.124183 82.525717 C 106.137324 82.66631 105.136947 82.371605 104.385312 81.717304 C 103.630973 81.065707 103.201081 80.1167 103.201081 79.119027 L 103.201081 51.600541 C 103.201081 49.699824 104.739499 48.161406 106.640216 48.158702 L 129.81382 48.158702 L 130.411343 41.280433 L 96.320108 41.280433 Z M 96.320108 92.234784 " transform="matrix(1.444767,0,0,1.444767,0.75,0.75)"/>
<path style=" stroke:none;fill-rule:nonzero;fill:rgb(94.509804%,76.862745%,5.882353%);fill-opacity:1;" d="M 27.910156 10.691406 C 26.515625 10.691406 25.183594 11.277344 24.242188 12.308594 C 23.300781 13.335938 22.835938 14.714844 22.960938 16.105469 L 40.453125 212.050781 C 40.632812 214.101562 42.058594 215.824219 44.035156 216.390625 L 123.601562 239.117188 C 124.492188 239.371094 125.4375 239.371094 126.328125 239.117188 L 205.976562 216.390625 C 207.953125 215.824219 209.375 214.101562 209.558594 212.050781 L 227.039062 16.105469 C 227.164062 14.714844 226.699219 13.335938 225.757812 12.308594 C 224.816406 11.277344 223.484375 10.691406 222.089844 10.691406 Z M 33.347656 20.628906 L 216.652344 20.628906 L 199.96875 207.773438 L 124.972656 229.175781 L 50.050781 207.773438 Z M 95.179688 50.449219 C 92.433594 50.449219 90.210938 52.675781 90.210938 55.421875 L 90.210938 148.003906 L 61.71875 140.113281 C 60.222656 139.699219 58.621094 140.007812 57.382812 140.945312 C 56.148438 141.882812 55.421875 143.347656 55.421875 144.898438 L 55.421875 169.476562 C 55.421875 171.710938 56.910156 173.664062 59.058594 174.261719 L 113.730469 189.425781 C 115.226562 189.839844 116.828125 189.535156 118.066406 188.59375 C 119.300781 187.65625 120.027344 186.191406 120.03125 184.640625 L 120.03125 55.421875 C 120.03125 52.675781 117.804688 50.449219 115.058594 50.449219 Z M 134.941406 50.449219 C 132.195312 50.449219 129.96875 52.675781 129.96875 55.421875 L 129.96875 139.910156 C 129.96875 141.375 130.617188 142.769531 131.738281 143.714844 C 132.859375 144.660156 134.339844 145.0625 135.785156 144.8125 L 164.351562 139.890625 L 163.761719 148.695312 L 133.621094 156.984375 C 131.464844 157.578125 129.972656 159.535156 129.96875 161.769531 L 129.96875 184.640625 C 129.96875 186.191406 130.691406 187.65625 131.925781 188.597656 C 133.160156 189.535156 134.765625 189.847656 136.261719 189.433594 L 185.960938 175.769531 C 187.964844 175.214844 189.414062 173.472656 189.589844 171.398438 L 194.832031 110.515625 C 194.960938 109.007812 194.398438 107.523438 193.296875 106.480469 C 192.199219 105.4375 190.683594 104.957031 189.183594 105.167969 L 159.789062 109.332031 L 159.789062 80.269531 L 192.863281 80.269531 C 195.441406 80.269531 197.589844 78.296875 197.8125 75.726562 L 199.53125 55.847656 C 199.648438 54.460938 199.183594 53.085938 198.242188 52.0625 C 197.300781 51.035156 195.972656 50.449219 194.578125 50.449219 Z M 100.148438 60.390625 L 110.089844 60.390625 L 110.089844 178.105469 L 65.359375 165.703125 L 65.359375 151.433594 L 93.851562 159.332031 C 95.347656 159.75 96.949219 159.441406 98.1875 158.503906 C 99.421875 157.5625 100.148438 156.101562 100.148438 154.546875 Z M 139.910156 60.390625 L 189.164062 60.390625 L 188.300781 70.328125 L 154.820312 70.328125 C 152.074219 70.332031 149.851562 72.554688 149.851562 75.300781 L 149.851562 115.058594 C 149.851562 116.5 150.472656 117.871094 151.5625 118.8125 C 152.648438 119.757812 154.09375 120.183594 155.519531 119.980469 L 184.398438 115.886719 L 179.980469 167.097656 L 139.910156 178.117188 L 139.910156 165.566406 L 169.808594 157.34375 C 171.84375 156.78125 173.304688 154.996094 173.449219 152.886719 L 174.691406 134.25 C 174.792969 132.730469 174.191406 131.246094 173.058594 130.226562 C 171.925781 129.203125 170.386719 128.757812 168.886719 129.019531 L 139.910156 134.007812 Z M 139.910156 60.390625 "/>
</g>
</svg>
